<svg xmlns="http://www.w3.org/2000/svg" viewBox="0 0 100 40" width="100" height="40">
    <g fill="#666" transform="translate(4,4)">
        <path d="M0 32h32V0H0v32zM2.038 2.038h27.923v27.923H2.038V2.038z"></path>
        <path d="M4.038 27.962h23.923V4.038H4.038v23.924zM21.049 8.25h3.402v3.402h-3.402V8.25zm0 6.049h3.402v3.402h-3.402v-3.402zm0 6.049h3.402v3.402h-3.402v-3.402zM14.299 8.25h3.402v3.402h-3.402V8.25zm0 6.049h3.402v3.402h-3.402v-3.402zm0 6.049h3.402v3.402h-3.402v-3.402zM7.549 8.25h3.402v3.402H7.549V8.25zm0 6.049h3.402v3.402H7.549v-3.402zm0 6.049h3.402v3.402H7.549v-3.402z"></path>
    </g>
    <g fill="#666" transform="translate(42,5.5),scale(2.5,2.5)">
        <path d="M2.87 10.50L0.80 10.50L0 1.33L1.40 1.33L2.02 9.21L2.10 9.21L2.97 5.14L4.21 5.14L5.04 9.21L5.14 9.21L5.63 1.33L6.99 1.33L6.36 10.50L4.23 10.50L3.58 6.89L3.54 6.89L2.87 10.50ZM7.59 3.78L7.59 3.78L7.59 3.78Q7.59 1.19 10.70 1.19L10.70 1.19L10.70 1.19Q11.79 1.19 13.19 1.68L13.19 1.68L12.87 2.95L12.87 2.95Q11.44 2.51 10.62 2.50L10.62 2.50L10.62 2.50Q9.80 2.49 9.44 2.77L9.44 2.77L9.44 2.77Q9.07 3.05 9.07 3.75L9.07 3.75L9.07 3.75Q9.07 4.23 9.48 4.56L9.48 4.56L9.48 4.56Q9.88 4.89 10.85 5.14L10.85 5.14L10.85 5.14Q12.32 5.53 12.87 6.15L12.87 6.15L12.87 6.15Q13.41 6.76 13.41 7.98L13.41 7.98L13.41 7.98Q13.41 10.63 10.25 10.63L10.25 10.63L10.25 10.63Q9.20 10.63 7.60 10.18L7.60 10.18L7.90 8.85L7.90 8.85Q7.90 8.86 8.33 8.97L8.33 8.97L8.33 8.97Q9.69 9.32 10.44 9.32L10.44 9.32L10.44 9.32Q11.19 9.32 11.56 8.95L11.56 8.95L11.56 8.95Q11.93 8.57 11.93 7.99L11.93 7.99L11.93 7.99Q11.93 7.42 11.61 7.11L11.61 7.11L11.61 7.11Q11.30 6.80 10.46 6.57L10.46 6.57L10.46 6.57Q8.95 6.15 8.27 5.53L8.27 5.53L8.27 5.53Q7.59 4.91 7.59 3.78ZM17.47 7.15L17.47 7.15L17.47 7.15Q16.72 7.20 16.63 7.20L16.63 7.20L15.97 7.20L15.97 10.50L14.52 10.50L14.52 1.33L17.40 1.33L17.40 1.33Q18.93 1.33 19.71 2.01L19.71 2.01L19.71 2.01Q20.50 2.69 20.50 4.27L20.50 4.27L20.50 4.27Q20.50 6.09 18.93 6.83L18.93 6.83L18.93 6.83Q19.89 8.67 20.55 10.50L20.55 10.50L18.98 10.50L18.98 10.50Q18.35 8.81 17.47 7.15ZM17.12 2.62L17.12 2.62L15.97 2.62L15.97 5.85L17.14 5.85L17.14 5.85Q19.01 5.85 19.01 4.27L19.01 4.27L19.01 4.27Q19.01 3.39 18.56 3.00L18.56 3.00L18.56 3.00Q18.12 2.62 17.12 2.62Z"></path>
    </g>
</svg>